<svg xmlns="http://www.w3.org/2000/svg" viewBox="0 0 100 100">
  <path d="M 50 50 L 50 2 A 48 48 0 0 1 95.6 35.1 Z" fill="#c0392b" />
  <path d="M 50 50 L 95.6 35.1 A 48 48 0 0 1 78.2 88.8 Z" fill="#27ae60" />
  <path d="M 50 50 L 78.2 88.8 A 48 48 0 0 1 21.8 88.8 Z" fill="#f39c12" />
  <path d="M 50 50 L 21.8 88.8 A 48 48 0 0 1 4.4 35.1 Z" fill="#2980b9" />
  <path d="M 50 50 L 4.4 35.1 A 48 48 0 0 1 50 2 Z" fill="#d35400" />
  
  <circle cx="32" cy="32" r="4" fill="black" opacity="0.8" />
  <circle cx="68" cy="32" r="4" fill="black" opacity="0.8" />
  <circle cx="78" cy="65" r="4" fill="black" opacity="0.8" />
  <circle cx="50" cy="78" r="4" fill="black" opacity="0.8" />
  <circle cx="22" cy="65" r="4" fill="black" opacity="0.8" />
</svg>
